<?xml version="1.0" encoding="UTF-8" standalone="no"?><!DOCTYPE svg PUBLIC "-//W3C//DTD SVG 1.1//EN" "http://www.w3.org/Graphics/SVG/1.1/DTD/svg11.dtd"><svg width="100%" height="100%" viewBox="0 0 2048 2048" version="1.1" xmlns="http://www.w3.org/2000/svg" xmlns:xlink="http://www.w3.org/1999/xlink" xml:space="preserve" style="fill-rule:evenodd;clip-rule:evenodd;stroke-linejoin:round;stroke-miterlimit:1.41421;"><g id="LOGO-.--Blue"><g id="Logo-Big"><path d="M966.784,597.899c44.841,-11.111 147.227,-63.231 250.25,-83.536l55.898,-419.06c-175.241,-9.988 -467.62,12.866 -740.064,105.712c-273.162,93.081 -406.992,247.146 -338.469,353.678c0,0 1.94,3.298 1.967,3.345c4.758,6.877 11.216,12.936 16.772,20c160.888,204.875 627.259,51.208 753.646,19.861Z" style="fill:#dce2c0;stroke:#000;stroke-width:55px;"/><path d="M1024.33,559.464c-17.25,4.492 -32.188,8.398 -43.937,11.323c-126.387,31.322 -599.536,173.621 -767.255,7.251c-6.486,-6.432 -12.041,-13.123 -16.772,-20c8.027,13.544 827.964,1400.77 827.964,1400.77l55.207,-1019.16l-55.207,-380.181Z" style="fill:#00778c;stroke:#fff;stroke-width:55px;"/><path d="M1024.33,559.464c-17.25,4.492 -32.188,8.398 -43.937,11.323c-126.387,31.322 -599.536,173.621 -767.255,7.251c-6.486,-6.432 -12.041,-13.123 -16.772,-20c8.027,13.544 827.964,1400.77 827.964,1400.77l55.207,-1019.16l-55.207,-380.181Z" style="fill:#fff;stroke:#000;stroke-width:55px;"/><path d="M1747.65,563.512c-108.207,-107.35 -343.28,-86.086 -530.615,-49.149c-75.992,14.972 -144.116,32.492 -192.704,45.101l0,471.502c41.252,-5.216 83.222,-11.27 126.361,-19.2c91.196,-16.82 185.288,-39.885 277.228,-71.208c41.172,-14.035 79.208,-29.476 113.842,-45.897c4.971,-2.362 9.356,-4.89 14.194,-7.276c96.166,-47.79 165.034,-103.278 200.465,-158.066l-0.053,0.095c0.027,-0.023 0.053,-0.047 0.08,-0.095l1.675,-2.829c37.025,-59.114 35.803,-117.082 -10.473,-162.978Z" style="fill:#fff;stroke:#000;stroke-width:55px;"/><path d="M1555.95,887.385c-4.838,2.386 -9.223,4.914 -14.194,7.276c-34.634,16.446 -72.67,31.862 -113.842,45.897c-91.966,31.347 -186.032,54.388 -277.228,71.208c-43.139,7.93 -85.109,13.989 -126.361,19.205l0,927.807l0.027,0.025l732.01,-1229.39c-35.484,54.762 -104.299,110.226 -200.412,157.971Z" style="fill:#fff;stroke:#000;stroke-width:55px;"/></g></g></svg>