<?xml version="1.0" encoding="UTF-8" standalone="no"?>
<!DOCTYPE svg PUBLIC "-//W3C//DTD SVG 1.1//EN" "http://www.w3.org/Graphics/SVG/1.1/DTD/svg11.dtd">
<svg width="100%" height="100%" viewBox="0 0 156.1 40" version="1.1" xmlns="http://www.w3.org/2000/svg" xmlns:xlink="http://www.w3.org/1999/xlink" xml:space="preserve" style="fill-rule:evenodd;clip-rule:evenodd;stroke-linejoin:round;stroke-miterlimit:1.41421;">
  <path d="M146.6 0H7.5a13.2 13.2 0 0 0-2 .2 6.7 6.7 0 0 0-1.9.6A6.4 6.4 0 0 0 2 2 6.3 6.3 0 0 0 .8 3.6a6.6 6.6 0 0 0-.6 2 13 13 0 0 0-.2 2v24.9a13 13 0 0 0 .2 2 6.6 6.6 0 0 0 .6 1.9A6.2 6.2 0 0 0 2 38a6.3 6.3 0 0 0 1.6 1.2 6.7 6.7 0 0 0 2 .6 13.5 13.5 0 0 0 2 .2h141a13.3 13.3 0 0 0 2-.2 6.8 6.8 0 0 0 1.9-.6A6.3 6.3 0 0 0 154 38a6.4 6.4 0 0 0 1.2-1.6 6.6 6.6 0 0 0 .6-2 13.5 13.5 0 0 0 .2-2v-.8V9.5v-1-1a13.5 13.5 0 0 0-.2-2 6.6 6.6 0 0 0-.6-1.9 6.5 6.5 0 0 0-2.8-2.8 6.8 6.8 0 0 0-2-.6 13 13 0 0 0-2-.2H146.7z" fill="#a6a6a6"/>
  <path d="M8.4 39.1h-.9a12.7 12.7 0 0 1-1.8-.1 5.9 5.9 0 0 1-1.7-.6 5.4 5.4 0 0 1-1.4-1 5.3 5.3 0 0 1-1-1.4 5.7 5.7 0 0 1-.5-1.7 12.4 12.4 0 0 1-.2-1.8v-24-1A12.4 12.4 0 0 1 1 5.7 5.8 5.8 0 0 1 1.6 4a5.4 5.4 0 0 1 1-1.4 5.6 5.6 0 0 1 1.4-1 5.8 5.8 0 0 1 1.7-.5A12.6 12.6 0 0 1 7.5.9h141.1a12.4 12.4 0 0 1 1.8.2 6 6 0 0 1 1.7.5 5.6 5.6 0 0 1 2.4 2.4 5.8 5.8 0 0 1 .5 1.7 13 13 0 0 1 .2 1.9v24.9a12.7 12.7 0 0 1-.2 1.8 5.7 5.7 0 0 1-.5 1.7 5.5 5.5 0 0 1-1 1.4 5.4 5.4 0 0 1-1.4 1 5.9 5.9 0 0 1-1.7.6 12.5 12.5 0 0 1-1.8.1h-2z"/>
  <g data-name="&lt;Group&gt;">
    <g data-name="&lt;Group&gt;">
      <g data-name="&lt;Group&gt;" fill="#fff">
        <path data-name="&lt;Path&gt;" d="M24.8 20.3a5 5 0 0 1 2.3-4.2 5 5 0 0 0-4-2.1c-1.6-.2-3.3 1-4.1 1-.9 0-2.2-1-3.6-1a5.3 5.3 0 0 0-4.5 2.8c-2 3.3-.5 8.2 1.4 11 .9 1.3 2 2.7 3.4 2.7s1.9-.9 3.6-.9c1.6 0 2.1.9 3.5.9 1.5 0 2.5-1.4 3.4-2.7a11 11 0 0 0 1.5-3.1 4.8 4.8 0 0 1-3-4.4zM22 12.2a4.9 4.9 0 0 0 1.2-3.5 5 5 0 0 0-3.3 1.7 4.6 4.6 0 0 0-1.1 3.3 4.1 4.1 0 0 0 3.2-1.5z"/>
      </g>
      <g fill="#fff">
        <path d="M46.1 30.5v-9.1l-3.8 9H41l-3.7-9H37v9.1h-1.8V18.1h2.3l4 9.8 4-9.8H48v12.4zM49.4 28c0-1.7 1.2-2.6 3.4-2.7l2.4-.2v-.7c0-1-.6-1.5-1.8-1.5a1.7 1.7 0 0 0-1.9 1.2h-1.7c0-1.6 1.6-2.8 3.7-2.8 2.2 0 3.6 1.2 3.6 3v6.2h-1.8V29a3.2 3.2 0 0 1-2.9 1.7 2.7 2.7 0 0 1-3-2.8zm5.8-.9v-.7l-2.2.1c-1.1.1-1.7.6-1.7 1.4 0 .8.6 1.3 1.6 1.3a2.2 2.2 0 0 0 2.3-2zM64.9 24.6a2 2 0 0 0-2.1-1.7c-1.5 0-2.4 1.2-2.4 3 0 2 1 3.2 2.4 3.2a2 2 0 0 0 2-1.7h1.9a3.6 3.6 0 0 1-4 3.2c-2.5 0-4.2-1.8-4.2-4.6s1.7-4.7 4.2-4.7a3.6 3.6 0 0 1 4 3.3zM78.8 27.1H74L73 30.5h-2l4.5-12.4h2L82 30.5h-2zm-4.3-1.5h3.8L76.4 20zM91.6 26c0 2.8-1.5 4.6-3.8 4.6A3 3 0 0 1 85 29v4.5h-2v-12H85v1.4a3.2 3.2 0 0 1 2.9-1.6c2.3 0 3.8 1.9 3.8 4.7zm-1.9 0c0-1.9-1-3-2.4-3S85 24.1 85 26s1 3 2.4 3c1.5 0 2.4-1.2 2.4-3zM101.6 26c0 2.8-1.5 4.6-3.8 4.6A3 3 0 0 1 95 29v4.5h-2v-12H95v1.4a3.2 3.2 0 0 1 2.9-1.6c2.3 0 3.8 1.9 3.8 4.7zm-2 0c0-1.9-.9-3-2.3-3s-2.4 1.2-2.4 3 1 3 2.4 3 2.4-1.2 2.4-3zM108.2 27c.1 1.3 1.3 2 3 2 1.5 0 2.6-.7 2.6-1.8 0-1-.7-1.6-2.3-2l-1.6-.4c-2.2-.5-3.3-1.6-3.3-3.3 0-2.2 1.9-3.6 4.5-3.6s4.4 1.4 4.5 3.6h-1.9c0-1.3-1.1-2-2.6-2s-2.5.8-2.5 1.9c0 .8.6 1.4 2.2 1.7l1.4.4c2.5.6 3.6 1.6 3.6 3.4 0 2.3-1.9 3.8-4.8 3.8-2.8 0-4.6-1.4-4.7-3.7zM119.8 19.3v2.1h1.7V23h-1.7v5c0 .8.3 1.1 1.1 1.1a5.8 5.8 0 0 0 .6 0v1.5a5.1 5.1 0 0 1-1 0c-1.8 0-2.6-.6-2.6-2.4v-5.2h-1.3v-1.5h1.3v-2.1zM122.5 26c0-2.9 1.7-4.7 4.3-4.7 2.6 0 4.3 1.8 4.3 4.7 0 2.8-1.7 4.6-4.3 4.6-2.6 0-4.3-1.8-4.3-4.6zm6.7 0c0-2-.9-3.1-2.4-3.1s-2.4 1.1-2.4 3c0 2 1 3.2 2.4 3.2s2.4-1.2 2.4-3.1zM132.6 21.4h1.8V23a2.2 2.2 0 0 1 2.2-1.7 2.9 2.9 0 0 1 .7.1v1.8a2.6 2.6 0 0 0-.9-.2 1.9 1.9 0 0 0-1.9 2.1v5.4h-1.9zM145.8 27.8c-.2 1.7-1.8 2.8-3.9 2.8-2.6 0-4.2-1.8-4.2-4.6s1.6-4.7 4.2-4.7c2.5 0 4 1.8 4 4.5v.6h-6.4v.1a2.4 2.4 0 0 0 2.5 2.6 2 2 0 0 0 2-1.3zm-6.2-2.7h4.5a2.2 2.2 0 0 0-2.2-2.3 2.3 2.3 0 0 0-2.3 2.3z"/>
      </g>
    </g>
  </g>
  <g data-name="&lt;Group&gt;">
    <g fill="#fff">
      <path d="M37.8 8.7a2.6 2.6 0 0 1 2.8 3c0 1.9-1 3-2.8 3h-2.1v-6zM36.6 14h1.1a1.9 1.9 0 0 0 2-2.2 1.9 1.9 0 0 0-2-2.1h-1.1zM41.7 12.4a2.1 2.1 0 1 1 4.2 0 2.1 2.1 0 1 1-4.2 0zm3.3 0c0-1-.4-1.5-1.2-1.5-.8 0-1.2.6-1.2 1.5 0 1 .4 1.6 1.2 1.6.8 0 1.2-.6 1.2-1.6zM51.6 14.7h-1l-.9-3.3-1 3.3h-.9l-1.2-4.5h.9l.8 3.4 1-3.4h.8l1 3.4.8-3.4h1zM53.9 10.2h.8v.7a1.3 1.3 0 0 1 1.4-.8 1.5 1.5 0 0 1 1.6 1.7v2.9h-1V12c0-.7-.2-1-.9-1a1 1 0 0 0-1 1v2.7h-1zM59 8.4h1v6.3h-1zM61.2 12.4a2.1 2.1 0 1 1 4.3 0 2.1 2.1 0 1 1-4.3 0zm3.4 0c0-1-.5-1.5-1.3-1.5-.7 0-1.2.6-1.2 1.5 0 1 .5 1.6 1.2 1.6.8 0 1.3-.6 1.3-1.6zM66.4 13.4c0-.8.6-1.3 1.7-1.3h1.2v-.5c0-.5-.3-.7-1-.7-.4 0-.8.2-.9.5h-.8c0-.8.8-1.3 1.8-1.3 1.1 0 1.8.6 1.8 1.5v3.1h-.9v-.6a1.5 1.5 0 0 1-1.4.7 1.4 1.4 0 0 1-1.5-1.4zm2.9-.4v-.3h-1.1c-.6 0-1 .3-1 .7 0 .4.4.6 1 .6a1 1 0 0 0 1-1zM71.3 12.4c0-1.4.8-2.3 2-2.3a1.5 1.5 0 0 1 1.3.8V8.4h1v6.3h-.9V14a1.6 1.6 0 0 1-1.5.8c-1.1 0-1.9-1-1.9-2.4zm1 0c0 1 .4 1.6 1.2 1.6.7 0 1.2-.6 1.2-1.6 0-.9-.5-1.5-1.2-1.5-.8 0-1.2.6-1.2 1.5zM79.2 12.4a2.1 2.1 0 1 1 4.3 0 2.1 2.1 0 1 1-4.3 0zm3.4 0c0-1-.5-1.5-1.2-1.5-.8 0-1.3.6-1.3 1.5 0 1 .5 1.6 1.3 1.6.7 0 1.2-.6 1.2-1.6zM84.7 10.2h.8v.7a1.3 1.3 0 0 1 1.4-.8 1.5 1.5 0 0 1 1.6 1.7v2.9h-.9V12c0-.7-.3-1-1-1a1 1 0 0 0-1 1v2.7h-1zM93.5 9v1.2h1v.8h-1v2.3c0 .5.2.7.7.7a3 3 0 0 0 .3 0v.7a3 3 0 0 1-.5 0c-1 0-1.4-.3-1.4-1.2V11H92v-.8h.7V9.1zM95.7 8.4h.9V11a1.4 1.4 0 0 1 1.4-.8 1.5 1.5 0 0 1 1.6 1.7v2.9h-1V12c0-.7-.2-1-.9-1a1 1 0 0 0-1.1 1v2.7h-.9zM104.8 13.5a1.8 1.8 0 0 1-2 1.3 2 2 0 0 1-2-2.3 2 2 0 0 1 2-2.4c1.3 0 2 .9 2 2.3v.3h-3.2a1.2 1.2 0 0 0 1.2 1.3 1 1 0 0 0 1.1-.5zm-3.2-1.5h2.3a1 1 0 0 0-1.1-1.1 1.2 1.2 0 0 0-1.2 1.1z"/>
    </g>
  </g>
</svg>
