<?xml version="1.0" encoding="UTF-8" standalone="no"?><!DOCTYPE svg PUBLIC "-//W3C//DTD SVG 1.1//EN" "http://www.w3.org/Graphics/SVG/1.1/DTD/svg11.dtd"><svg width="100%" height="100%" viewBox="0 0 2048 2048" version="1.1" xmlns="http://www.w3.org/2000/svg" xmlns:xlink="http://www.w3.org/1999/xlink" xml:space="preserve" style="fill-rule:evenodd;clip-rule:evenodd;stroke-linejoin:round;stroke-miterlimit:1.41421;"><g id="Catalina-.--markdown-.--2"><circle cx="1024" cy="1024" r="901.123" style="fill:#fff;"/><circle cx="1024" cy="1024" r="799.647" style="fill:#fff;"/><g id="Nodio"><path d="M803.118,592.215c0,-35.931 -29.171,-65.102 -65.103,-65.102c-35.931,0 -65.102,29.171 -65.102,65.102l0,863.57c0,35.931 29.171,65.102 65.102,65.102c35.932,0 65.103,-29.171 65.103,-65.102l0,-863.57Z" style="fill:#fff;"/><path d="M803.118,592.215c0,-35.931 -29.171,-65.102 -65.103,-65.102c-35.931,0 -65.102,29.171 -65.102,65.102l0,863.57c0,35.931 29.171,65.102 65.102,65.102c35.932,0 65.103,-29.171 65.103,-65.102l0,-863.57Z" style="fill:#8ed081;"/><path d="M1089.1,811.028c0,-35.932 -29.172,-65.103 -65.103,-65.103c-35.931,0 -65.103,29.171 -65.103,65.103l0,425.944c0,35.932 29.172,65.103 65.103,65.103c35.931,0 65.103,-29.171 65.103,-65.103l0,-425.944Z" style="fill:#fff;"/><path d="M1089.1,811.028c0,-35.932 -29.172,-65.103 -65.103,-65.103c-35.931,0 -65.103,29.171 -65.103,65.103l0,425.944c0,35.932 29.172,65.103 65.103,65.103c35.931,0 65.103,-29.171 65.103,-65.103l0,-425.944Z" style="fill:#eaf4d3;"/><path d="M1375.11,705.382c0,-35.931 -29.172,-65.103 -65.103,-65.103c-35.931,0 -65.103,29.172 -65.103,65.103l0,750.403c0,35.931 29.172,65.102 65.103,65.102c35.931,0 65.103,-29.171 65.103,-65.102l0,-750.403Z" style="fill:#b5ffe9;"/></g></g></svg>